<?xml version="1.0" encoding="UTF-8" standalone="no" ?>
<!DOCTYPE svg PUBLIC "-//W3C//DTD SVG 1.1//EN" "http://www.w3.org/Graphics/SVG/1.1/DTD/svg11.dtd">
<svg xmlns="http://www.w3.org/2000/svg" xmlns:xlink="http://www.w3.org/1999/xlink" version="1.1" width="400" height="400" viewBox="0 0 400 400" xml:space="preserve">
<desc>Created with Fabric.js 3.6.2</desc>
<defs>
</defs>
<g transform="matrix(6.67 0 0 6.67 200 200)" id="Layer_3"  >
<path style="stroke: none; stroke-width: 1; stroke-dasharray: none; stroke-linecap: butt; stroke-dashoffset: 0; stroke-linejoin: miter; stroke-miterlimit: 4; fill: rgb(255,255,255); fill-rule: nonzero; opacity: 1;"  transform=" translate(-16, -16)" d="M 30.94531 6.40186 c -0.00427 -0.01233 -0.01318 -0.02167 -0.01788 -0.03375 c -0.01373 -0.03534 -0.03455 -0.0647 -0.052 -0.09796 c -0.03864 -0.07373 -0.08209 -0.14166 -0.13647 -0.20245 c -0.0271 -0.0304 -0.05518 -0.05664 -0.08575 -0.08356 c -0.06134 -0.05383 -0.12775 -0.0976 -0.20038 -0.13507 c -0.03357 -0.0174 -0.06384 -0.03662 -0.09949 -0.05017 C 30.24176 5.75629 30.12433 5.72754 30 5.72754 H 2 c -0.12433 0 -0.24176 0.02875 -0.35333 0.07135 C 1.61102 5.81244 1.58075 5.83167 1.54718 5.84906 C 1.47455 5.88654 1.40814 5.9303 1.3468 5.98413 C 1.31622 6.01105 1.28815 6.03729 1.26105 6.06769 C 1.20667 6.12848 1.16321 6.19641 1.12457 6.27014 C 1.10712 6.30341 1.0863 6.33276 1.07257 6.3681 c -0.0047 0.01208 -0.01361 0.02142 -0.01788 0.03375 C 1.01874 6.50623 1.00244 6.61328 1.00165 6.71948 C 1.00165 6.72235 1 6.72467 1 6.72754 v 18.54492 c 0 0.55225 0.44775 1 1 1 h 28 c 0.55225 0 1 -0.44775 1 -1 V 6.72754 c 0 -0.00287 -0.00165 -0.00519 -0.00165 -0.00806 C 30.99756 6.61328 30.98126 6.50623 30.94531 6.40186 z M 27.09473 7.72754 L 16 16.3916 L 4.90527 7.72754 H 27.09473 z M 3 24.27246 V 8.7774 l 12.38428 9.67133 c 0.18115 0.14111 0.39844 0.21191 0.61572 0.21191 s 0.43457 -0.0708 0.61572 -0.21191 L 29 8.7774 v 15.49506 H 3 z" stroke-linecap="round" />
</g>
</svg>