<svg width="11" height="16" viewBox="0 0 11 16" fill="none" xmlns="http://www.w3.org/2000/svg">
<g clip-path="url(#clip0_64_3)">
<g clip-path="url(#clip1_64_3)">
<g clip-path="url(#clip2_64_3)">
<path d="M1.25635 8.64502L7.89697 15.2856C8.35596 15.7446 9.09814 15.7446 9.55225 15.2856L10.6558 14.1821C11.1147 13.7231 11.1147 12.981 10.6558 12.5269L5.94873 7.81982L10.6558 3.11279C11.1147 2.65381 11.1147 1.91162 10.6558 1.45752L9.55713 0.344238C9.09814 -0.114746 8.35596 -0.114746 7.90186 0.344238L1.26123 6.98486C0.7974 7.44385 0.7974 8.18604 1.25635 8.64502Z" fill="#115085"/>
</g>
</g>
</g>
<defs>
<clipPath id="clip0_64_3">
<rect width="11" height="16" fill="white" transform="matrix(-1 0 0 1 11 0)"/>
</clipPath>
<clipPath id="clip1_64_3">
<rect width="11" height="16" fill="white" transform="matrix(-1 0 0 1 11 0)"/>
</clipPath>
<clipPath id="clip2_64_3">
<rect width="11" height="16" fill="white" transform="matrix(-1 0 0 1 11 0)"/>
</clipPath>
</defs>
</svg>
