<?xml version="1.0" encoding="UTF-8" standalone="no" ?>
<!DOCTYPE svg PUBLIC "-//W3C//DTD SVG 1.1//EN" "http://www.w3.org/Graphics/SVG/1.1/DTD/svg11.dtd">
<svg xmlns="http://www.w3.org/2000/svg" xmlns:xlink="http://www.w3.org/1999/xlink" version="1.1" width="50" height="50" viewBox="0 0 200 200" xml:space="preserve">

<defs>
</defs>
<g transform="matrix(0.78 0 0 0.78 100 100)"  >
<rect style="stroke: none; stroke-width: 1; stroke-dasharray: none; stroke-linecap: butt; stroke-dashoffset: 0; stroke-linejoin: miter; stroke-miterlimit: 4; fill: none; fill-rule: nonzero; opacity: 1;"  x="-128" y="-128" rx="0" ry="0" width="256" height="256" />
</g>
<g transform="matrix(0.78 0 0 0.78 100.41 98.39)"  >
<path style="stroke: #115085; stroke-width: 8; stroke-dasharray: none; stroke-linecap: round; stroke-dashoffset: 0; stroke-linejoin: round; stroke-miterlimit: 4; fill: none; fill-rule: nonzero; opacity: 1;"  transform=" translate(-128.53, -125.93)" d="M 88 134.9 L 177.9 214 a 8 8 0 0 0 13.1 -4.2 L 228.6 45.6 a 8 8 0 0 0 -10.7 -9.2 L 33.3 108.9 c -7.4 2.9 -6.4 13.7 1.4 15.3 Z" stroke-linecap="round" />
</g>
<g transform="matrix(0.78 0 0 0.78 121.91 66.99)"  >
<line style="stroke:  #115085; stroke-width: 8; stroke-dasharray: none; stroke-linecap: round; stroke-dashoffset: 0; stroke-linejoin: round; stroke-miterlimit: 4; fill: none; fill-rule: nonzero; opacity: 1;"  x1="-68.05" y1="49.150000000000006" x2="68.05" y2="-49.150000000000006" />
</g>
<g transform="matrix(0.78 0 0 0.78 86.29 133.94)"  >
<path style="stroke:  #115085; stroke-width: 8; stroke-dasharray: none; stroke-linecap: round; stroke-dashoffset: 0; stroke-linejoin: round; stroke-miterlimit: 4; fill: none; fill-rule: nonzero; opacity: 1;"  transform=" translate(-110.45, -171.44)" d="M 132.9 174.4 l -31.2 31.2 A 8 8 0 0 1 88 200 V 134.9" stroke-linecap="round" />
</g>
</svg>