<?xml version="1.0" encoding="UTF-8" standalone="no" ?>
<!DOCTYPE svg PUBLIC "-//W3C//DTD SVG 1.1//EN" "http://www.w3.org/Graphics/SVG/1.1/DTD/svg11.dtd">
<svg xmlns="http://www.w3.org/2000/svg" xmlns:xlink="http://www.w3.org/1999/xlink" version="1.1" width="50" height="50" viewBox="0 0 200 200" xml:space="preserve">
<desc>Created with Fabric.js 3.6.2</desc>
<defs>
</defs>
<g transform="matrix(3.13 0 0 3.13 99.99 100)" id="WA"  >
<path style="stroke: none; stroke-width: 1; stroke-dasharray: none; stroke-linecap: butt; stroke-dashoffset: 0; stroke-linejoin: miter; stroke-miterlimit: 4; fill:rgb(255,255,255); fill-rule: nonzero; opacity: 1;"  transform=" translate(-32, -32)" d="M 2 63 c -0.3 0 -0.5 -0.1 -0.7 -0.3 c -0.3 -0.3 -0.4 -0.7 -0.2 -1 l 4.5 -13.6 C 2.6 43.3 1 37.7 1 32 C 1 14.9 14.9 1 32 1 s 31 13.9 31 31 S 49.1 63 32 63 c -5.7 0 -11.3 -1.6 -16.1 -4.5 L 2.3 62.9 C 2.2 63 2.1 63 2 63 z M 16 56.4 c 0.2 0 0.4 0.1 0.5 0.2 c 4.6 2.9 10 4.5 15.5 4.5 c 16 0 29 -13 29 -29 S 48 3 32 3 S 3 16 3 32 c 0 5.5 1.6 10.9 4.5 15.5 c 0.2 0.3 0.2 0.6 0.1 0.8 c 0 0.1 -0.1 0.2 -0.2 0.3 L 3.6 60.4 l 12.1 -4 C 15.8 56.4 15.9 56.4 16 56.4 z" stroke-linecap="round" />
</g>
<g transform="matrix(3.13 0 0 3.13 99.98 100)" id="WA"  >
<path style="stroke: none; stroke-width: 1; stroke-dasharray: none; stroke-linecap: butt; stroke-dashoffset: 0; stroke-linejoin: miter; stroke-miterlimit: 4; fill: rgb(255,255,255); fill-rule: nonzero; opacity: 1;"  transform=" translate(-31.99, -32)" d="M 40 47.3 c -2.7 0 -6.1 -0.9 -10 -2.7 c -5.4 -2.5 -9.8 -6.4 -12.7 -11.3 c -1.7 -2.8 -2.6 -5.4 -2.7 -7.8 c 0 -0.1 -0.5 -4.7 3.9 -8.2 c 0.5 -0.4 1.1 -0.6 1.8 -0.6 l 1.8 0 c 1.1 0 2.2 0.7 2.6 1.7 l 2.7 6.6 c 0.4 1 0.2 2.2 -0.5 3 l -1.7 1.9 c -0.2 0.3 -0.3 0.7 -0.1 1 c 0.1 0.1 0.2 0.4 0.6 0.9 c 2 2.6 4.7 4.7 7.7 6 c 0.5 0.2 0.8 0.3 1 0.4 c 0.3 0.1 0.7 0 0.9 -0.3 l 1.4 -2.1 c 0.6 -0.9 1.7 -1.4 2.8 -1.2 l 7.1 1.1 c 1.1 0.2 2 1 2.3 2.1 l 0.4 1.8 c 0.2 0.6 0.1 1.3 -0.2 1.9 c 0 0 0 0 0 0 c -2.4 5.2 -6.9 5.8 -7.1 5.8 C 41.4 47.2 40.7 47.3 40 47.3 z M 20.3 18.7 c -0.2 0 -0.4 0.1 -0.5 0.2 c -3.6 2.9 -3.2 6.5 -3.2 6.5 c 0.1 2.1 0.9 4.4 2.4 6.9 c 2.7 4.5 6.8 8.2 11.8 10.5 c 4.5 2.1 8.2 2.9 10.9 2.4 c 0.2 0 3.7 -0.6 5.6 -4.7 c 0.1 -0.2 0.1 -0.4 0 -0.5 L 47 38.2 c -0.1 -0.3 -0.3 -0.6 -0.7 -0.6 l -7.1 -1.1 c -0.3 0 -0.6 0.1 -0.8 0.4 L 37 39 c -0.7 1 -1.9 1.5 -3.1 1.2 c -0.3 -0.1 -0.7 -0.2 -1.3 -0.5 c -3.3 -1.5 -6.3 -3.8 -8.5 -6.7 c -0.4 -0.5 -0.6 -0.8 -0.8 -1.1 c -0.6 -1.1 -0.4 -2.4 0.4 -3.3 l 1.7 -1.9 c 0.2 -0.2 0.3 -0.6 0.2 -0.9 l -2.7 -6.6 c -0.1 -0.3 -0.4 -0.5 -0.8 -0.5 L 20.3 18.7 C 20.3 18.7 20.3 18.7 20.3 18.7 z M 48.3 40.9 L 48.3 40.9 L 48.3 40.9 z" stroke-linecap="round" />
</g>
</svg>